<?xml version="1.0" encoding="utf-8"?>
<!-- Generator: Adobe Illustrator 25.2.3, SVG Export Plug-In . SVG Version: 6.00 Build 0)  -->
<svg version="1.1" id="Layer_1" xmlns="http://www.w3.org/2000/svg" xmlns:xlink="http://www.w3.org/1999/xlink" x="0px" y="0px"
	 viewBox="0 0 1080 1080" style="enable-background:new 0 0 1080 1080;" xml:space="preserve">
<style type="text/css">
	.st0{fill-rule:evenodd;clip-rule:evenodd;fill:#D4AB3A;}
	.st1{fill-rule:evenodd;clip-rule:evenodd;fill:#065DAA;}
	.st2{fill-rule:evenodd;clip-rule:evenodd;fill:#23AFE5;}
</style>
<path class="st0" d="M332,441.7c3.8-5.6,6.2-10.9,7.6-16.4c1.2-4.6,4.8-28.2-0.9-28.8c-3.5-0.4-5.9,7.5-7.1,13.8
	C329.5,422.4,330.1,430.8,332,441.7 M389.3,447c4.7-9,12.3-47.4,3.6-48.5c-4.2-0.5-6.9,13.3-7.1,24.4
	C385.5,433.8,387.6,441.9,389.3,447z M420.9,457.4c0,0,5.8-3,8.3-10.6c0.9-2.8,0.4-5.8-1.2-6.3c-3.9-1.2-6.3,2.3-7.3,5.8
	C419.7,450.5,420.5,455,420.9,457.4z M711.2,447c0,0,5.4-11.4,6.8-29.7c1.4-18.3-3.5-20.3-5.6-16.8c-2.1,3.5-5.1,19.9-3.7,32.2
	C710.1,445.1,711.2,447,711.2,447z M736.6,459c-5.1,3-8.1,8.6-15.2,5.4c-2.6-1.2-5.7-4.4-7.2-6.3c-1.7-2.1-2.6-4-2.4-5.3
	c1.6-0.8,7.3-20.5,8.7-27.7c1.4-7,2.2-14,2-19.9c-0.6-15.4-10.4-25.1-17.7,8.9c-4.3,20-3.3,28.4-1.7,48.3c-5,1.5-6.3,4.1-10.3-0.4
	c-1.8-3.7-1.5-8.3,0.6-12c2.3-4,5.5-4.1,7.6-7.2c-8.1-4.1-20.2,9.1-21.1,24.4c-15.9-2.2-12-12.7-20.7-19.8
	c-6.8,2.3-7.3,13.8-15.4,15.2c-5.8-4.5-1.8-8.7-6.4-13.5c-5.8-0.7-10.9,6.6-12.6,11.8l6.1-1.7c1,24,7.3,19.9,13.7,12
	c1.1-1.4,2.2-3.3,3.3-4.7c3-4.1,5.2-7.5,6.1-7.7c0.5-0.1,0.9,1.2,1.2,2.9c0.7,3.6,1.8,7.1,3.2,10.1c2.3,4.8,5.9,7.8,9.8,8.4
	c3.5,0.5,7.4-1,10.9-5c1.5-1.6,1.9-3.7,2.4-3.7c0.5,0,1.1,2,3,3.5c2.4,1.7,5.1,3.1,9.9,1.2c4-1.7,5.7-3.8,7.5-6
	c4.1-5,2.5-3.5,5.9,0.3c4.1,4.5,10.5,9.2,16.1,4.7c1.9-1.5,2.2-2.6,3-3.4c0.9-0.9,1.4-1.3,1.9-1.2c0.4,0.1,0.7,0.6,1.1,1.5
	c4.2,9.4,15.6,6.7,23.1,2.9c5.1-2.6,18.5-12,15.8-18c-4.1,1.5-5.7,5.5-11.2,7c1.6-14.5,0.5-21.7-11-26.6c-4-0.2-15.3,16.1-16.3,18.9
	c5.8,0.1,5.4-5.3,10.3-8.8c3.1,0.9,5.4,4,7.2,6.7c1.9,2.8,3.1,6.9,2.8,9.3c-0.4,3.1-3.3,4.4-7.4,0.6c-1.3-1.2-2.3-2.9-3.1-4.7
	C739.3,457.3,739.5,457.3,736.6,459z M276.7,449.3c-1.6,11.4-11.3,44.7-1,51.4c4.9-0.8,6.3-3.1,7.6-7.9c-0.3-3.7-8.2-1.8-3.8-28
	c1.5-8.8,4.9-21.2,5.3-29.3c-5.3,2.1-12,13.2-21.2,18.3c-8.9,4.9-22.2,5.5-28.9-0.9c-14.7-14.1-2.5-44.9,6.5-58.1
	c4.7-7,12-15.3,18.7-19.8c6.6-4.3,24.6-10.4,25.1,2.2c0.5,12.7-26.8,46-39.4,33.9c-3.3-5.8,2.1-7.3,2.4-12.9
	c-8.6-1-11.8,8.5-12.3,15.9c-2,24.9,33.1-0.6,45.8-16.6c29.3-37,12.7-51.2-28.9-21.2c-46,33.2-54.2,111.3-9.4,96.5
	c7.3-2.4,12.6-6,17.7-10.2C265.3,458.9,272.6,451.2,276.7,449.3z M505.1,459.8c-4.1,3.2-7.2,7.7-10.9,7.7c-1.5,0-3.3-1.3-5.4-2.8
	c-2-1.5-3.9-3.7-5.5-6.7c-1-1.9-4.7-11.3-7.3-10.7c-0.9,0.2-2.2,1.3-3.2,3.4c-0.9,1.9-1.9,3.8-2.8,5.4c-3,5.4-5.8,7.2-7.5,6.8
	c-3.2-0.7-4.3-8.3-6.1-11.5c-2.5-4.5-5.2-2.5-8,0.6c-0.5,0.6-1,1.2-1.7,1.8c-3.7,3.4-9.5,12.9-16.2,12.4c-2.4-0.2-8.1-3.8-8-6.1
	c2.7-4.5,9.7-9.3,12-16.3c2.5-7.3,0.1-13.6-8.1-9.1c-3.5,1.9-6.4,5.8-8.8,9.3c-1.8,2.7-3.5,5.9-5.1,9.4c-1.6,3.5-3.1,7.2-2.3,11.1
	c-4.1,1-9.9,1.9-13.6,0c-5.8-3.1-6.3-7.8-6.7-11.9c2.7-1.8,5.5-13.5,6.3-16.7c3.1-13.6,6.6-33.8,0.2-45.3
	c-10.9,0.5-13.5,18.6-15.2,29.5c-2.7,18,0.5,37.6-0.5,42c-9.9,2.7-16.5-9.4-5-16.5l3.2-2.8c-11.6-5.3-20.2,16-21.4,17.3
	c-8.7,9.5-20-0.2-23.1-9.6c-0.6-1.7-1.2-2.8-1.3-4.3c0.8-0.8,3.8-3.8,6.6-10c2.2-4.9,3.5-8.9,4.5-14.5c1.8-10.2,4.2-27.5-2-34.3
	c-13.5,0.2-18.8,42.5-18.6,53.7c0.1,4.6,1.1,7.4,0.6,8.6c0,0-3.8,1.9-4.1,1.7c-1-4.6-1.5-9.3-6.3-11.7c-4.8-2.4-8.2-1.8-10.3,1.3
	c-5.4,7.8,6.4,12.7,11.8,15.1c0,5.7-3.8,9.5-7.5,9.1c-5-0.5-11.4-8-6.7-18.6c-14,3.5-19.3,28.7-5.8,32c8.3,2,14.6-4.5,17.3-8.3
	c3.7-5.2,5-10.1,6-12.4c0.9-0.3,3.4-1.7,6.1-2.7c1.3,7.9,3.6,19.8,13.7,20c5.5,0.1,12-2.4,15.9-5.1c1.6-1.1,2.6-2.8,3.2-2.7
	c0,0,0.5-0.1,1,0.3c0.6,0.6,1.4,1.5,2.2,2.3c1.7,1.8,3,2.8,4.9,4.3c1.5,1.2,2.8,1.7,4.3,1.7c2.2,0.1,4.2-1.1,10.2-4.8
	c3.4-2.2,1.9-3.9,6.1,1.2c2.3,2.8,5.1,5.1,10.1,4.7c8.1-0.6,9.2-5.1,13.6-8.1c3.6,7,9.1,11.9,18.8,8.3c9.1-3.4,13.9-11.6,16.8-14.1
	c0.7,1.9,4.9,28.2,19.5,6.1c0.8-1.3,1.7-2.8,2.6-4c2-2.7,3.2-4.8,4-4.9c0.8,0,1.2,2,1.9,5.3c1.3,6.2,4.6,13.9,13.7,14.3
	c2.5,0.1,3.6-0.1,5.5-0.9c4.1-2,5.3-5.2,5.8-5.3c1.9-0.4,0.1,3.1,5.5,6.3c9.7,5.6,28.6,2.3,37.6,0.4c15.6-3.2,25.1-9.6,37.8-15.2
	c-0.1,5.8-0.1,9.6,3.6,11.9c10.1,5.6,14.3-8,19.4-9.7c1.3,4.3,1.6,8.9,4.6,10.8c8.3,3.7,18.3-8.5,20.3-14.6
	c-5.7,1.8-10.3,4.5-13.2,3.4c-2.6-0.9-4-4.8-3.2-12.9c-6.7,4.6-4.9,8.6-12.2,9c-10.4,0.6-9-15.2-0.5-16.8c5.1-1,4.6,1.6,6.4,3.5
	c5,5.5,11.8-1.4,7.8-7.7c-3-4.8-10.6-3.3-15.2-0.7c-13.2,7.4-10.1,15-21.4,21c-5.3,2.9-9.5,5-15.9,6.1c4.7-8.2,30.3-22.1-6.6-44.5
	c-5.1-3.1-12.3-7.1-15.6-10.4c-20.4-20.1,15.5-37.5,26.4-37.7c6.4-0.1,9.4,1.6,9.7,3.9c0.2,1.5-0.6,3.2-1.3,5.2
	c-2.5,7,1.4,6.1,5.2,2.4c0.3-0.3,0.6-0.6,0.9-0.9c5.8-6.3,6.9-14.1-2.3-17.2c-10.8-3.7-21.3,2.7-28.8,7.3c-11.6,7-39,24.9-27.5,45.1
	c7.9,13.8,42.5,16.9,39,36.8c-1.5,8.3-11.4,15.6-23.9,12.7c-10.1-2.4-16-7.9-23.6-11.9C508.3,457.1,508,457.5,505.1,459.8z"/>
<path class="st1" d="M311.5,488.1l-10.6,0.7l-28.5,2.5l-17.7,2.6l33.7-2c20.8-1.9,43.9-1.4,64.8-1.4c17.8,0,36,0.5,53.6,1.3
	c17.3,0.9,34.7,1.2,52,2.5c17.2,1.3,34.5,2.2,51.7,3c34.4,1.6,69.6,4.6,104.7,4.9c6.5,0.1,100.5,1.3,104.3-4.7
	c-4-3.7-45.7-1.7-54.4-1.6c-41.9,0-77.2-0.6-119.4-1.9c-38.6-1.4-77.2-4.5-115.8-5.6c-19.8-0.5-39.2-1.6-59-1.7
	C350.8,486.6,331.4,487.3,311.5,488.1"/>
<path class="st2" d="M318.6,498.8l-15.3,1.3l2.1,0.2c12-0.8,24.8-0.8,37.1-1.1c12.6-0.3,25.9-0.6,38.5-0.3l13.6,0.2
	c10.6,0,98.9,2.9,101.7,4.8c3.7-0.6,18.8,0.9,23.5,1.3c7.5,0.6,15.7,1.2,23.2,1.5c16.1,0.6,31.6,1.5,47.9,1.7
	c7.5,0.1,14.7,0.4,22.3,0.4c31.1,0.1,62.4,0.7,93.7,0.9c15.4,0.1,35.9,0.8,50.9,0c7-0.4,7.5-0.5,9.4-3.4c1-1.4,1.2-0.8,1.8-2.1
	c-2.2-3.3-22.6-2.2-27.1-2.2c-9.3,0.2-19.2,0.3-28.4,1c-55.6,4.4-114.1,1.4-169.3-1.4c-36.9-1.8-74.3-5.1-111.4-5.5
	c-19.4-0.2-38.9-0.4-58.4,0.1C355.7,496.8,337.1,498,318.6,498.8"/>
</svg>
